<svg width="55" height="56" viewBox="0 0 55 56" fill="none" xmlns="http://www.w3.org/2000/svg">
<path d="M6.22088 6.11436H18.1531L21.9986 15.8185L15.8198 19.9759C15.456 20.2209 15.1577 20.5528 14.9514 20.942C14.7451 21.3313 14.6372 21.766 14.6372 22.2074C14.6452 22.4596 14.6372 22.2101 14.6372 22.2101V22.2665C14.6388 22.3864 14.6441 22.5063 14.6532 22.6259C14.6691 22.8458 14.6957 23.1435 14.7462 23.511C14.8498 24.2352 15.0491 25.2329 15.4371 26.4077C16.2185 28.7681 17.7492 31.8231 20.7309 34.8325C23.7127 37.8419 26.7396 39.3868 29.0755 40.1754C30.2422 40.567 31.2281 40.7655 31.951 40.8727C32.359 40.9302 32.7697 40.9661 33.1814 40.98L33.2159 40.9827H33.2372C33.2372 40.9827 33.5348 40.9666 33.2399 40.9827C33.7333 40.9824 34.2168 40.8436 34.6365 40.5816C35.0561 40.3196 35.3951 39.9449 35.6157 39.4995L37.3962 35.9053L49.185 37.8902V49.4772C43.5749 50.2952 28.4218 51.1026 16.5161 39.0864C4.61042 27.0702 5.40768 11.7738 6.22088 6.11436ZM20.1463 23.511L24.9484 20.2816C25.9629 19.5987 26.7138 18.5844 27.0753 17.4089C27.4367 16.2335 27.3867 14.9683 26.9336 13.8256L23.0881 4.1215C22.6935 3.12616 22.0125 2.27298 21.1328 1.67203C20.2532 1.07108 19.2153 0.749928 18.1531 0.75H6.08268C3.667 0.75 1.39482 2.44246 0.998854 5.08709C0.0952981 11.1005 -1.12982 28.8619 12.7584 42.879C26.6466 56.8961 44.2446 55.6569 50.2028 54.7477C52.8231 54.3453 54.5 52.0548 54.5 49.6167V37.8902C54.5002 36.6203 54.054 35.3916 53.2408 34.4226C52.4277 33.4536 51.3003 32.8071 50.0593 32.5982L38.2705 30.6161C37.1493 30.4272 35.9976 30.6061 34.9846 31.1265C33.9715 31.6469 33.1504 32.4814 32.6419 33.5075L31.7224 35.3662C31.3973 35.2854 31.0754 35.1915 30.7577 35.0846C29.1101 34.5321 26.822 33.3948 24.4887 31.0399C22.1554 28.6849 21.0286 26.3756 20.4811 24.7099C20.3504 24.3162 20.2395 23.916 20.1489 23.511H20.1463Z" fill="white"/>
</svg>
